<?xml version="1.0" encoding="UTF-8" standalone="no"?>
<svg
   xmlns:dc="http://purl.org/dc/elements/1.1/"
   xmlns:cc="http://creativecommons.org/ns#"
   xmlns:rdf="http://www.w3.org/1999/02/22-rdf-syntax-ns#"
   xmlns:svg="http://www.w3.org/2000/svg"
   xmlns="http://www.w3.org/2000/svg"
   xmlns:sodipodi="http://sodipodi.sourceforge.net/DTD/sodipodi-0.dtd"
   xmlns:inkscape="http://www.inkscape.org/namespaces/inkscape"
   id="svg3239"
   sodipodi:docname="oc sis g.svg"
   inkscape:export-filename="/home/rejon/Pictures/openclipart-scissors-blue.png"
   viewBox="0 0 2400 2400"
   inkscape:export-xdpi="90"
   version="1.1"
   inkscape:export-ydpi="90"
   inkscape:version="0.92.2 (5c3e80d, 2017-08-06)"
   width="2400"
   height="2400">
  <defs
     id="defs906" />
  <sodipodi:namedview
     id="namedview4055"
     fit-margin-left="0"
     inkscape:zoom="0.2208333333333333"
     borderopacity="1"
     inkscape:current-layer="svg3239"
     inkscape:cx="1200"
     inkscape:cy="1200"
     inkscape:window-maximized="1"
     inkscape:snap-bbox="true"
     showgrid="false"
     fit-margin-right="0"
     inkscape:snap-global="true"
     bordercolor="#ffffff"
     inkscape:window-x="-8"
     guidetolerance="10"
     objecttolerance="10"
     inkscape:window-width="1366"
     inkscape:window-y="-8"
     fit-margin-bottom="0"
     inkscape:snap-page="true"
     inkscape:pageopacity="0.7450980392"
     inkscape:pageshadow="0"
     pagecolor="#003af6"
     gridtolerance="10"
     inkscape:window-height="705"
     fit-margin-top="0"
     borderlayer="true"
     inkscape:showpageshadow="false"
     guidecolor="#00ffe4"
     guideopacity="1"
     guidehicolor="#f000ff"
     guidehiopacity="1"
     inkscape:pagecheckerboard="true"
     showguides="true"
     inkscape:guide-bbox="true" />
  <g
     id="g7819">
    <path
       inkscape:connector-curvature="0"
       id="rect7169"
       d="m 2.273736754432321e-13,2.273736754432321e-13 h 2399.9999999999995452526491135358 v 2400.0000000000004547473508864641 h -2399.9999999999995452526491135358 z"
       style="color:#000000;clip-rule:nonzero;display:inline;overflow:visible;visibility:visible;opacity:1;isolation:auto;mix-blend-mode:normal;color-interpolation:sRGB;color-interpolation-filters:linearRGB;solid-color:#000000;solid-opacity:1;vector-effect:none;fill:#ffffff;fill-opacity:1;fill-rule:nonzero;stroke:none;stroke-width:1;stroke-linecap:round;stroke-linejoin:round;stroke-miterlimit:4;stroke-dasharray:none;stroke-dashoffset:0;stroke-opacity:1;marker:none;paint-order:fill markers stroke;color-rendering:auto;image-rendering:auto;shape-rendering:auto;text-rendering:auto;enable-background:accumulate" />
    <g
       id="g7811">
      <path
         style="color:#000000;clip-rule:nonzero;display:inline;overflow:visible;visibility:visible;opacity:1;isolation:auto;mix-blend-mode:normal;color-interpolation:sRGB;color-interpolation-filters:linearRGB;solid-color:#000000;solid-opacity:1;vector-effect:none;fill:#1f4a87;fill-opacity:1;fill-rule:nonzero;stroke:none;stroke-width:0.964461863;stroke-linecap:round;stroke-linejoin:round;stroke-miterlimit:4;stroke-dasharray:none;stroke-dashoffset:0;stroke-opacity:1;marker:none;paint-order:fill markers stroke;color-rendering:auto;image-rendering:auto;shape-rendering:auto;text-rendering:auto;enable-background:accumulate"
         d="m 349.9999999999998,1830.000000000003 c 0,28.613247229032 5.7966871867986,57.75516164673 16.7465028475187,84.190355120317 10.9498156607156,26.435193473589 27.457384144024,51.140515593305 47.6900052914421,71.37313674072 20.2326211474171,20.232621147416 44.9379432671317,36.740189630726 71.3731367407197,47.690005291443 26.4351934735882,10.949815660717 55.577107891288,16.746502847517 84.1903551203201,16.746502847517 h 1259.9999999999986 c 28.613247229034,0 57.755161646732,-5.7966871868 84.19035512032,-16.746502847517 26.435193473588,-10.949815660717 51.140515593303,-27.457384144026 71.373136740721,-47.690005291443 20.232621147418,-20.232621147415 36.740189630726,-44.937943267131 47.690005291441,-71.37313674072 10.94981566072,-26.435193473587 16.746502847519,-55.577107891285 16.746502847519,-84.190355120317 v -1260.0000000000059 c 0,-28.6132472290325 -5.796687186799,-57.7551616467313 -16.746502847519,-84.1903551203179 -10.949815660715,-26.4351934735878 -27.457384144023,-51.1405155933046 -47.690005291441,-71.3731367407197 -20.232621147418,-20.2326211474168 -44.937943267133,-36.7401896307258 -71.373136740721,-47.6900052914432 -26.435193473588,-10.949815660716 -55.577107891286,-16.7465028475164 -84.19035512032,-16.7465028475164 h -1259.9999999999949 c -28.6132472290328,0 -57.7551616467318,5.7966871868005 -84.1903551203202,16.7465028475164 -26.4351934735876,10.9498156607174 -51.1405155933028,27.4573841440265 -71.3731367407199,47.6900052914432 -20.2326211474163,20.2326211474151 -36.7401896307245,44.9379432671319 -47.69000529144,71.3731367407197 -10.9498156607203,26.4351934735867 -16.7465028475191,55.5771078912854 -16.7465028475191,84.1903551203179 z"
         id="path7772"
         inkscape:connector-curvature="0"
         sodipodi:nodetypes="sssssssssssssssssssss" />
      <g
         id="g7805">
        <path
           id="path1431"
           style="color:#000000;clip-rule:nonzero;display:inline;overflow:visible;visibility:visible;opacity:1;isolation:auto;mix-blend-mode:normal;color-interpolation:sRGB;color-interpolation-filters:linearRGB;solid-color:#000000;solid-opacity:1;vector-effect:none;fill:#ffffff;fill-opacity:1;fill-rule:evenodd;stroke:none;stroke-width:4;marker:none;paint-order:markers fill stroke;color-rendering:auto;image-rendering:auto;shape-rendering:auto;text-rendering:auto;enable-background:accumulate"
           d="m 1118.931870281579,1285.304328698202 c 0,-28.434776232735 0,-56.869552465469 0,-85.304328698203 0,-28.434776232734 0,-56.869552465467 0,-85.304328698201 m -1.6e-11,-1.11e-10 c -62.349127863795,35.997285755907 -111.973734667244,80.279879478259 -155.203724051504,124.68309382 -35.9319948991165,36.907158524832 -72.7147967054077,64.325480296495 -109.5418943666604,85.587615044692 -45.7546240938874,26.416444537284 -100.7571070806674,43.972183707148 -154.4934345577118,58.370789258836 -48.6531411202078,13.036569872399 -95.2339273181281,28.149758401596 -133.8107837602559,50.297128833896 -28.1383610794003,16.154522780215 -51.5890316142641,38.225685778231 -67.2363086876439,65.32756466944 -12.0604229865555,20.889265373491 -18.6457248577995,43.732750737214 -18.6457248577995,66.996250638783 0,25.321979563012 6.3892548591437,42.250213351479 16.7598260550235,60.212569566239 13.3919133622924,23.195474354036 34.0229586680564,42.499955301444 55.0372201629079,54.775946670964 35.7465315725431,20.882204838972 80.2129831688162,31.05337019546 124.7926596714558,31.05337019546 52.5492813161284,0 94.243032813868,-10.991475120244 127.2822190353113,-30.066658179 28.5360412729043,-16.475291110519 49.4378215999041,-36.472537826039 63.8933577043485,-61.510260809584 10.338005114756,-17.905950107668 16.3180413960888,-37.929811584584 16.3180413961009,-59.936991935375 0,-24.411538696256 -5.8286264183409,-45.186245150395 -17.1326580624209,-64.919127045435 -7.4879527601157,-13.071344110067 -15.6362735061127,-22.3613161934 -23.4216372124042,-28.731669625601 -10.823224776025,-8.856075284396 -21.9371291143277,-16.022130801259 -34.1120332130721,-23.051314960031 26.4636339103075,-19.44684699582 57.9848285286279,-34.20042112788 83.6646472218773,-45.185933551748 54.6697704720198,-23.3870593054 133.1901304424112,-60.367971210796 225.8502275224712,-113.293715195019 49.250477137083,-28.434776232734 98.500954274164,-56.869552465469 147.751431411244,-85.304328698203 217.772232769061,-125.730857211253 435.544465538122,-251.4617144225072 653.316698307182,-377.1925716337599 -43.95559582949,-25.3777750845396 -96.322740038421,-39.4095090852479 -147.078290207515,-39.4095090852479 -50.755550169095,0 -103.455469586435,13.4465853465786 -148.227338724811,39.2956360457486 -168.587500262038,97.3340386583161 -337.175000524083,194.6680773166314 -505.762500786124,292.0021159749455 z m -534.7647259908447,399.307563799187 c 9.4850985210353,-11.680284394084 21.7701990837882,-22.14110129446 36.1060682448879,-30.417919213688 21.2168362205687,-12.249546103305 40.8470845551999,-19.286753850609 68.4303177602842,-19.286753850609 25.2894225708478,0 46.9837963976763,5.023156050457 63.3007955210273,14.443779886681 13.9732654399481,8.067468563215 24.6819479039962,19.051734920112 32.0158972497125,31.754507807031 7.8528205375642,13.601484153777 11.2477491383762,27.145479849931 11.2477491383721,39.987492061251 0,14.295434166573 -2.9526407229472,28.744768467577 -11.2113877215163,42.035842872413 -10.0899717615604,16.2381249176 -20.5741159407155,26.151237316067 -36.4448839601115,35.337079268848 -21.3566078008282,12.360991205147 -46.6698063739473,19.419996509328 -74.3654401109244,19.419996509328 -22.0254288643997,4e-12 -47.7752633507874,-5.606376142692 -65.2726993618312,-15.708525533797 -15.2873818756401,-8.826174041111 -26.6153758423078,-19.564055975739 -34.7794372856525,-33.220814021859 -6.5781981100636,-11.003942166796 -9.3673003155081,-22.710920569896 -9.3673003155041,-37.373087492821 0,-15.70366823288 6.8968732770004,-30.416863469604 20.340320841256,-46.971598292778 z"
           inkscape:connector-curvature="0"
           sodipodi:nodetypes="ccccccccccccccccccccccccccccccccccccccc"
           inkscape:transform-center-x="-20.26703242960508"
           inkscape:transform-center-y="11.92473991012406" />
        <path
           inkscape:transform-center-y="-11.924739910124"
           inkscape:transform-center-x="-20.26703242960508"
           sodipodi:nodetypes="ccccccccccccccccccccccccccccccccccccccc"
           inkscape:connector-curvature="0"
           d="m 1118.931870281579,1114.695671301797 c 0,28.434776232735 0,56.869552465469 0,85.304328698203 0,28.434776232734 0,56.869552465467 0,85.304328698201 m -1.6e-11,1.11e-10 c -62.349127863795,-35.997285755908 -111.973734667244,-80.27987947826 -155.203724051504,-124.68309382 -35.9319948991165,-36.907158524832 -72.7147967054077,-64.325480296495 -109.5418943666604,-85.587615044692 -45.7546240938874,-26.416444537284 -100.7571070806674,-43.972183707148 -154.4934345577118,-58.370789258836 -48.6531411202078,-13.0365698724 -95.2339273181281,-28.1497584015965 -133.8107837602559,-50.2971288338962 -28.1383610794003,-16.1545227802158 -51.5890316142641,-38.2256857782321 -67.2363086876439,-65.3275646694397 -12.0604229865555,-20.8892653734915 -18.6457248577995,-43.7327507372161 -18.6457248577995,-66.9962506387833 0,-25.3219795630124 6.3892548591437,-42.2502133514801 16.7598260550235,-60.2125695662403 13.3919133622924,-23.1954743540363 34.0229586680564,-42.4999553014442 55.0372201629079,-54.775946670964 35.7465315725431,-20.8822048389721 80.2129831688162,-31.0533701954602 124.7926596714558,-31.0533701954602 52.5492813161284,0 94.243032813868,10.9914751202443 127.2822190353113,30.0666581790005 28.5360412729043,16.4752911105197 49.4378215999041,36.4725378260398 63.8933577043485,61.510260809584 10.338005114756,17.9059501076682 16.3180413960888,37.9298115845839 16.3180413961009,59.9369919353754 0,24.4115386962551 -5.8286264183409,45.1862451503957 -17.1326580624209,64.9191270454358 -7.4879527601157,13.071344110068 -15.6362735061127,22.3613161934001 -23.4216372124042,28.7316696256001 -10.823224776025,8.8560752843956 -21.9371291143277,16.0221308012593 -34.1120332130721,23.0513149600316 26.4636339103075,19.4468469958205 57.9848285286279,34.20042112788 83.6646472218773,45.1859335517481 54.6697704720198,23.3870593054 133.1901304424112,60.367971210797 225.8502275224712,113.293715195021 49.250477137083,28.434776232733 98.500954274164,56.869552465468 147.751431411244,85.304328698203 217.772232769061,125.730857211253 435.544465538122,251.461714422507 653.316698307182,377.19257163376 -43.95559582949,25.377775084539 -96.322740038421,39.409509085247 -147.078290207515,39.409509085247 -50.755550169095,0 -103.455469586435,-13.446585346578 -148.227338724811,-39.295636045748 -168.587500262038,-97.334038658317 -337.175000524083,-194.668077316632 -505.762500786124,-292.002115974947 z m -534.7647259908447,-399.3075637991865 c 9.4850985210353,11.6802843940843 21.7701990837882,22.14110129446 36.1060682448879,30.4179192136878 21.2168362205687,12.2495461033053 40.8470845551999,19.2867538506089 68.4303177602842,19.2867538506089 25.2894225708478,0 46.9837963976763,-5.0231560504564 63.3007955210273,-14.4437798866808 13.9732654399481,-8.0674685632157 24.6819479039962,-19.0517349201119 32.0158972497125,-31.7545078070317 7.8528205375642,-13.6014841537758 11.2477491383762,-27.1454798499309 11.2477491383721,-39.9874920612516 0,-14.2954341665718 -2.9526407229472,-28.7447684675767 -11.2113877215163,-42.0358428724122 -10.0899717615604,-16.2381249175999 -20.5741159407155,-26.1512373160679 -36.4448839601115,-35.3370792688486 -21.3566078008282,-12.360991205147 -46.6698063739473,-19.4199965093278 -74.3654401109244,-19.4199965093278 -22.0254288643997,-3.5e-12 -47.7752633507874,5.6063761426924 -65.2726993618312,15.7085255337962 -15.2873818756401,8.8261740411117 -26.6153758423078,19.5640559757402 -34.7794372856525,33.22081402186 -6.5781981100636,11.0039421667962 -9.3673003155081,22.7109205698966 -9.3673003155041,37.3730874928198 0,15.70366823288 6.8968732770004,30.4168634696049 20.340320841256,46.9715982927801 z"
           style="color:#000000;clip-rule:nonzero;display:inline;overflow:visible;visibility:visible;opacity:1;isolation:auto;mix-blend-mode:normal;color-interpolation:sRGB;color-interpolation-filters:linearRGB;solid-color:#000000;solid-opacity:1;vector-effect:none;fill:#ffffff;fill-opacity:1;fill-rule:evenodd;stroke:none;stroke-width:4;marker:none;paint-order:markers fill stroke;color-rendering:auto;image-rendering:auto;shape-rendering:auto;text-rendering:auto;enable-background:accumulate"
           id="path6683" />
      </g>
    </g>
  </g>
  <metadata
     id="metadata903">
    <rdf:RDF>
      <cc:Work>
        <dc:format>image/svg+xml</dc:format>
        <dc:type
           rdf:resource="http://purl.org/dc/dcmitype/StillImage" />
        <cc:license
           rdf:resource="http://creativecommons.org/publicdomain/zero/1.0/" />
        <dc:publisher>
          <cc:Agent
             rdf:about="http://openclipart.org/">
            <dc:title></dc:title>
          </cc:Agent>
        </dc:publisher>
        <dc:title></dc:title>
        <dc:creator>
          <cc:Agent>
            <dc:title>Lazur URH</dc:title>
          </cc:Agent>
        </dc:creator>
        <dc:date>2018</dc:date>
      </cc:Work>
      <cc:License
         rdf:about="http://creativecommons.org/publicdomain/zero/1.0/">
        <cc:permits
           rdf:resource="http://creativecommons.org/ns#Reproduction" />
        <cc:permits
           rdf:resource="http://creativecommons.org/ns#Distribution" />
        <cc:permits
           rdf:resource="http://creativecommons.org/ns#DerivativeWorks" />
      </cc:License>
    </rdf:RDF>
  </metadata>
</svg>
